HIERARCHY
ROOT Pelvis
{
	OFFSET 0.000000 0.000000 0.000000
	CHANNELS 6 Xposition Yposition Zposition Xrotation Yrotation Zrotation
	JOINT LeftUpLeg_virtual
	{
		OFFSET 0.000000 0.000000 0.000000
		CHANNELS 3 Xrotation Yrotation Zrotation
		JOINT LeftUpLeg
		{
			OFFSET 8.479700 -4.795502 -0.379100
			CHANNELS 3 Xrotation Yrotation Zrotation
			JOINT LeftLeg
			{
				OFFSET 0.024144 -32.555107 0.112900
				CHANNELS 3 Xrotation Yrotation Zrotation
				JOINT LeftFoot
				{
					OFFSET -0.024144 -32.638630 -3.012600
					CHANNELS 3 Xrotation Yrotation Zrotation
					JOINT LeftToeBase
					{
						OFFSET 0.970200 -13.225400 11.864200
						CHANNELS 3 Xrotation Yrotation Zrotation
						End Site
						{
							OFFSET 0 0 0
						}
					}
				}
			}
		}
	}
	JOINT RightUpLeg_virtual
	{
		OFFSET 0.000000 0.000000 0.000000
		CHANNELS 3 Xrotation Yrotation Zrotation
		JOINT RightUpLeg
		{
			OFFSET -8.479700 -4.795502 -0.379100
			CHANNELS 3 Xrotation Yrotation Zrotation
			JOINT RightLeg
			{
				OFFSET -0.023144 -32.555092 0.112900
				CHANNELS 3 Xrotation Yrotation Zrotation
				JOINT RightFoot
				{
					OFFSET 0.023144 -32.638641 -3.012700
					CHANNELS 3 Xrotation Yrotation Zrotation
					JOINT RightToeBase
					{
						OFFSET -0.970200 -13.225400 11.864200
						CHANNELS 3 Xrotation Yrotation Zrotation
						End Site
						{
							OFFSET 0 0 0
						}
					}
				}
			}
		}
	}
	JOINT Hips_virtual
	{
		OFFSET 0.000000 0.000000 0.000000
		CHANNELS 3 Xrotation Yrotation Zrotation
		JOINT Hips
		{
			OFFSET -0.000000 -0.000000 -0.000000
			CHANNELS 3 Xrotation Yrotation Zrotation
			JOINT Spine
			{
				OFFSET 0.000000 7.722000 1.166200
				CHANNELS 3 Xrotation Yrotation Zrotation
				JOINT Spine1
				{
					OFFSET 0.000000 12.024101 0.248800
					CHANNELS 3 Xrotation Yrotation Zrotation
					JOINT Spine2
					{
						OFFSET 0.000000 11.502998 -0.491200
						CHANNELS 3 Xrotation Yrotation Zrotation
						JOINT Neck_virtual
						{
							OFFSET 0.000000 0.000000 0.000000
							CHANNELS 3 Xrotation Yrotation Zrotation
							JOINT Neck
							{
								OFFSET 0.000000 18.430702 -3.123100
								CHANNELS 3 Xrotation Yrotation Zrotation
								JOINT Head
								{
									OFFSET 0.000000 9.051102 1.034000
									CHANNELS 3 Xrotation Yrotation Zrotation
									End Site
									{
										OFFSET 0 0 0
									}
								}
							}
						}
						JOINT LeftShoulder_virtual
						{
							OFFSET 0.000000 0.000000 0.000000
							CHANNELS 3 Xrotation Yrotation Zrotation
							JOINT LeftShoulder
							{
								OFFSET 6.197800 13.665199 -4.064700
								CHANNELS 3 Xrotation Yrotation Zrotation
								JOINT LeftArm
								{
									OFFSET 7.778100 -0.187103 -1.709300
									CHANNELS 3 Xrotation Yrotation Zrotation
									JOINT LeftForeArm
									{
										OFFSET 22.049376 0.000000 0.000000
										CHANNELS 3 Xrotation Yrotation Zrotation
										JOINT LeftHand
										{
											OFFSET 23.009392 0.000000 0.000000
											CHANNELS 3 Xrotation Yrotation Zrotation
											End Site
											{
												OFFSET 0 0 0
											}
										}
									}
								}
							}
						}
						JOINT RightShoulder_virtual
						{
							OFFSET 0.000000 0.000000 0.000000
							CHANNELS 3 Xrotation Yrotation Zrotation
							JOINT RightShoulder
							{
								OFFSET -6.197800 13.665199 -4.064700
								CHANNELS 3 Xrotation Yrotation Zrotation
								JOINT RightArm
								{
									OFFSET -7.778100 -0.187103 -1.709300
									CHANNELS 3 Xrotation Yrotation Zrotation
									JOINT RightForeArm
									{
										OFFSET -22.049376 0.000000 0.000000
										CHANNELS 3 Xrotation Yrotation Zrotation
										JOINT RightHand
										{
											OFFSET -23.009392 0.000000 0.000000
											CHANNELS 3 Xrotation Yrotation Zrotation
											End Site
											{
												OFFSET 0 0 0
											}
										}
									}
								}
							}
						}
					}
				}
			}
		}
	}
}
MOTION
Frames: 6
Frame Time: 0.03333333
-0.267313 70.604881 0.121597 0.000000 0.000000 0.000000 -5.065252 -42.520796 0.340546 -32.847643 7.600896 17.498316 59.229802 -6.566491 4.271036 -23.775912 -8.051249 -14.618140 0.000000 0.000000 0.000000 -5.065252 -42.520796 0.340546 -25.074082 -10.660858 -28.105059 58.878621 -9.588134 -7.735723 -25.613095 -6.173832 21.445078 0.000000 0.000000 0.000000 -5.065252 -42.520796 0.340546 0.000000 0.000001 0.000000 9.465456 7.183108 -1.722573 2.187715 0.989902 -0.914787 0.000000 0.000000 0.000000 2.202830 0.982769 -0.893560 0.084655 13.220547 4.538682 0.000000 0.000000 0.000000 2.202830 0.982769 -0.893560 1.117177 3.546353 -8.633309 -53.487030 4.935512 -51.503000 179.999950 -73.641932 179.999937 0.000000 0.000000 0.000000 2.202830 0.982769 -0.893560 3.036126 13.027192 -5.371404 -48.713722 27.172835 83.457071 -179.999950 74.011711 179.999937 0.000000 0.000000 0.000000 
-0.267997 70.625923 0.145378 0.000000 0.000000 0.000000 -4.994773 -42.508423 0.288829 -32.898532 7.574335 17.704759 59.179204 -6.396607 4.092721 -23.783417 -8.243641 -14.618353 0.000000 0.000000 0.000000 -4.994773 -42.508423 0.288829 -25.152255 -10.905222 -28.155302 58.791639 -9.341186 -7.701667 -25.601118 -6.152748 21.299692 0.000000 0.000000 0.000000 -4.994773 -42.508423 0.288829 0.000000 0.000003 0.000000 9.447473 7.228277 -1.734267 2.175733 1.007917 -0.914784 0.000000 0.000000 0.000000 2.190585 1.000776 -0.893561 0.049152 13.241658 4.506406 0.000000 0.000000 0.000000 2.190585 1.000776 -0.893561 1.060112 3.401039 -8.204987 -53.252635 4.575419 -50.958942 -179.999991 -73.547750 -180.000005 0.000000 0.000000 0.000000 2.190585 1.000776 -0.893561 2.992701 12.851421 -5.316450 -49.165665 27.692720 83.232590 -179.999896 74.121951 179.999896 0.000000 0.000000 0.000000 
-0.272925 70.655373 0.184849 0.000000 0.000000 0.000000 -4.920078 -42.527599 0.242558 -32.938174 7.589500 17.925413 59.138783 -6.483818 3.918213 -23.772473 -8.315104 -14.505814 0.000000 0.000000 0.000000 -4.920078 -42.527599 0.242558 -25.175546 -11.062872 -28.209967 58.689425 -9.112093 -7.575594 -25.587291 -6.124543 21.118443 0.000000 0.000000 0.000000 -4.920078 -42.527599 0.242558 0.000000 0.000000 0.000000 9.421542 7.244123 -1.751380 2.160458 1.014518 -0.917777 0.000000 0.000000 0.000000 2.175228 1.007281 -0.896829 -0.002264 13.274982 4.469520 0.000000 0.000000 0.000000 2.175228 1.007281 -0.896829 1.001847 3.254859 -7.754999 -53.008965 4.373917 -50.549291 -179.999841 -73.314410 -179.999827 0.000000 0.000000 0.000000 2.175228 1.007281 -0.896829 2.949115 12.677383 -5.252450 -49.612698 28.281056 83.025874 -179.999841 74.211378 179.999827 0.000000 0.000000 0.000000 
-0.277440 70.694832 0.243410 0.000000 0.000000 0.000000 -4.838320 -42.595433 0.209495 -32.948785 7.662034 18.144077 59.082147 -6.682950 3.740821 -23.764523 -8.270343 -14.328658 0.000000 0.000000 0.000000 -4.838320 -42.595433 0.209495 -25.148365 -11.117596 -28.266658 58.570778 -8.798109 -7.359282 -25.555974 -6.179258 20.884748 0.000000 0.000000 0.000000 -4.838320 -42.595433 0.209495 0.000000 -0.000002 0.000000 9.385998 7.235286 -1.777463 2.140902 1.011714 -0.925599 0.000000 0.000000 0.000000 2.155733 1.004234 -0.904947 -0.072024 13.322204 4.429951 0.000000 0.000000 0.000000 2.155733 1.004234 -0.904947 0.942417 3.109337 -7.280550 -52.751829 4.313181 -50.243387 -179.999841 -72.961235 -179.999841 0.000000 0.000000 0.000000 2.155733 1.004234 -0.904947 2.906333 12.509024 -5.180290 -50.050650 28.941393 82.820818 -179.999882 74.285738 179.999882 0.000000 0.000000 0.000000 
-0.278863 70.745979 0.323061 0.000000 0.000000 0.000000 -4.747691 -42.724582 0.194362 -32.929715 7.810011 18.363428 59.003470 -6.981924 3.560391 -23.759694 -8.123894 -14.088717 0.000000 0.000000 0.000000 -4.747691 -42.724582 0.194362 -25.089105 -11.087139 -28.326543 58.429454 -8.320793 -7.079800 -25.502808 -6.369509 20.570503 0.000000 0.000000 0.000000 -4.747691 -42.724582 0.194362 0.000000 -0.000001 0.000000 9.339958 7.207077 -1.815585 2.116463 1.001624 -0.938756 0.000000 0.000000 0.000000 2.131452 0.993925 -0.918455 -0.160924 13.383832 4.389432 0.000000 0.000000 0.000000 2.131452 0.993925 -0.918455 0.882103 2.965735 -6.781120 -52.480319 4.371674 -50.014747 -179.999991 -72.505668 179.999991 0.000000 0.000000 0.000000 2.131452 0.993925 -0.918455 2.865106 12.349322 -5.101035 -50.475163 29.672896 82.603830 -179.999937 74.347770 179.999937 0.000000 0.000000 0.000000 
-0.276232 70.809212 0.423437 0.000000 0.000000 0.000000 -4.647850 -42.917801 0.197056 -32.887740 8.052943 18.592023 58.900929 -7.377269 3.383531 -23.757450 -7.895327 -13.788479 0.000000 0.000000 0.000000 -4.647850 -42.917801 0.197056 -25.011197 -10.992608 -28.399614 58.240313 -7.815753 -6.765536 -25.419283 -6.556029 20.251239 0.000000 0.000000 0.000000 -4.647850 -42.917801 0.197056 0.000000 -0.000001 0.000000 9.283691 7.164872 -1.866003 2.087179 0.986425 -0.957032 0.000000 0.000000 0.000000 2.102403 0.978370 -0.937112 -0.267373 13.458639 4.349121 0.000000 0.000000 0.000000 2.102403 0.978370 -0.937112 0.821556 2.824710 -6.259948 -52.200759 4.522690 -49.845891 -179.999855 -71.961323 -179.999855 0.000000 0.000000 0.000000 2.102403 0.978370 -0.937112 2.825816 12.199240 -5.015942 -50.885353 30.466619 82.367157 -179.999827 74.399120 179.999827 0.000000 0.000000 0.000000 
